<?xml version="1.0" encoding="utf-8"?>
<!-- Generator: Adobe Illustrator 21.1.0, SVG Export Plug-In . SVG Version: 6.00 Build 0)  -->
<svg version="1.1" id="Layer_1" xmlns="http://www.w3.org/2000/svg" xmlns:xlink="http://www.w3.org/1999/xlink" x="0px" y="0px"
	 viewBox="0 0 11.4 11.4" style="enable-background:new 0 0 11.4 11.4;" xml:space="preserve">
<style type="text/css">
	.st0{fill:#232222;}
</style>
<title>Output_Jack</title>
<path class="st0" d="M5.7,1.2c-2.5,0-4.5,2-4.5,4.5c0,2.5,2,4.5,4.5,4.5s4.5-2,4.5-4.5C10.2,3.2,8.2,1.2,5.7,1.2z M5.7,1.7
	c1.8,0,3.3,1.2,3.8,2.8H8.1C7.6,3.6,6.7,3,5.7,3S3.8,3.6,3.3,4.5H1.9C2.4,2.8,3.9,1.7,5.7,1.7z M7.5,5.7c0,0.2,0,0.4-0.1,0.6
	C7.4,6.5,7.2,6.7,7.1,6.9C6.7,7.3,6.2,7.5,5.7,7.5s-1-0.2-1.4-0.6C4.1,6.7,4,6.5,3.9,6.3C3.9,6.1,3.8,5.9,3.8,5.7s0-0.4,0.1-0.6
	C4,4.8,4.1,4.6,4.3,4.5c0.3-0.4,0.8-0.6,1.4-0.6s1,0.2,1.4,0.6c0.2,0.2,0.3,0.4,0.4,0.6C7.5,5.3,7.5,5.5,7.5,5.7z M1.7,5.7
	c0-0.2,0-0.4,0.1-0.6h1.4C3,5.3,3,5.5,3,5.7c0,0.2,0,0.4,0.1,0.6H1.7C1.7,6.1,1.7,5.9,1.7,5.7z M5.7,9.7c-1.8,0-3.3-1.2-3.8-2.8h1.5
	c0.4,0.9,1.3,1.4,2.4,1.4s1.9-0.6,2.4-1.4h1.5C9,8.5,7.5,9.7,5.7,9.7z M8.3,6.3c0-0.2,0.1-0.4,0.1-0.6c0-0.2,0-0.4-0.1-0.6h1.4
	c0,0.2,0.1,0.4,0.1,0.6s0,0.4-0.1,0.6H8.3z"/>
<path class="st0" d="M5.7,0C2.6,0,0,2.6,0,5.7s2.5,5.7,5.7,5.7s5.7-2.5,5.7-5.7S8.8,0,5.7,0z M5.7,10.9c-2.9,0-5.2-2.3-5.2-5.2
	s2.3-5.2,5.2-5.2s5.2,2.3,5.2,5.2S8.6,10.9,5.7,10.9z"/>
</svg>
