<svg xmlns="http://www.w3.org/2000/svg" viewBox="0 0 11.38 11.38"><defs><style>.a{fill:#232222;}</style></defs><title>Jack_Input_Icon</title><path class="a" d="M5.69,0a5.69,5.69,0,1,0,5.69,5.69A5.69,5.69,0,0,0,5.69,0Zm0,11A5.28,5.28,0,1,1,11,5.69,5.29,5.29,0,0,1,5.69,11Z"/><path class="a" d="M5.71,3.77h0a1.92,1.92,0,0,0,0,3.84h0a1.92,1.92,0,0,0,0-3.84Zm1.06,3a1.55,1.55,0,0,1-1.09.44h0a1.56,1.56,0,0,1,0-3.12h0A1.56,1.56,0,0,1,6.78,6.81Z"/><path class="a" d="M9.51,5.1A3.87,3.87,0,1,0,5.63,9.57h.05a3.85,3.85,0,0,0,2.71-1.1A4.48,4.48,0,0,0,9.52,6.13c0-.13,0-.31,0-.44S9.53,5.25,9.51,5.1ZM3.28,3.22a3.42,3.42,0,0,1,2.4-1h0A3.46,3.46,0,0,1,9.07,5H8.18A2.59,2.59,0,0,0,5.72,3.1a2.49,2.49,0,0,0-1.84.73A2.57,2.57,0,0,0,3.19,5H2.31A3.42,3.42,0,0,1,3.28,3.22Zm4.56,2.5A2.16,2.16,0,1,1,5.69,3.53h0A2.17,2.17,0,0,1,7.85,5.72ZM2.24,5.64c0-.09,0-.17,0-.25h.86a2.61,2.61,0,0,0,0,.26,2.59,2.59,0,0,0,0,.38H2.27A3.42,3.42,0,0,1,2.24,5.64ZM8.09,8.16a3.43,3.43,0,0,1-2.4,1h0A3.43,3.43,0,0,1,2.32,6.39H3.2A2.56,2.56,0,0,0,5.65,8.28h0A2.59,2.59,0,0,0,8.17,6.39h.89A3.42,3.42,0,0,1,8.09,8.16ZM9.1,6H8.24a2.56,2.56,0,0,0,0-.31,2.54,2.54,0,0,0,0-.33h.85a3.41,3.41,0,0,1,0,.34C9.13,5.83,9.11,5.93,9.1,6Z"/></svg>