<svg xmlns="http://www.w3.org/2000/svg" viewBox="0 0 11.38 11.38"><defs><style>.a{fill:none;}.b{fill:#232222;}</style></defs><title>Jack_Output_Icon</title><path class="a" d="M5.72,3.53h0a2.16,2.16,0,0,0,0,4.32h0a2.16,2.16,0,0,0,0-4.32ZM7,7.07a1.91,1.91,0,0,1-1.34.54h0a1.92,1.92,0,0,1,0-3.84h0A1.92,1.92,0,0,1,7,7.07Z"/><path class="a" d="M5.71,4.13h0a1.56,1.56,0,0,0,0,3.12h0a1.56,1.56,0,0,0,0-3.12Z"/><path class="a" d="M5.69,3.1h0A2.59,2.59,0,0,1,8.18,5h.89A3.46,3.46,0,0,0,5.73,2.24h0A3.44,3.44,0,0,0,2.31,5h.88A2.59,2.59,0,0,1,5.69,3.1Z"/><path class="a" d="M3.1,5.65a2.56,2.56,0,0,1,0-.26H2.27c0,.08,0,.17,0,.25a3.44,3.44,0,0,0,0,.39h.85A2.6,2.6,0,0,1,3.1,5.65Z"/><path class="a" d="M8.25,5.39a2.54,2.54,0,0,1,0,.33,2.56,2.56,0,0,1,0,.31H9.1c0-.1,0-.2,0-.3a3.39,3.39,0,0,0,0-.34Z"/><path class="a" d="M5.69,8.28h0A2.56,2.56,0,0,1,3.2,6.39H2.32A3.43,3.43,0,0,0,5.64,9.14h0A3.45,3.45,0,0,0,9.06,6.39H8.17A2.59,2.59,0,0,1,5.69,8.28Z"/><path class="b" d="M5.69,0a5.69,5.69,0,1,0,5.69,5.69A5.69,5.69,0,0,0,5.69,0ZM3.28,3.22a3.42,3.42,0,0,1,2.4-1h0A3.46,3.46,0,0,1,9.07,5H8.18A2.59,2.59,0,0,0,5.72,3.1h0A2.59,2.59,0,0,0,3.19,5H2.31A3.42,3.42,0,0,1,3.28,3.22Zm4.56,2.5A2.16,2.16,0,0,1,5.69,7.85h0a2.16,2.16,0,0,1,0-4.32h0A2.17,2.17,0,0,1,7.85,5.72ZM2.24,5.64c0-.09,0-.17,0-.25h.86a2.56,2.56,0,0,0,0,.26,2.6,2.6,0,0,0,0,.38H2.27A3.44,3.44,0,0,1,2.24,5.64ZM8.09,8.16a3.42,3.42,0,0,1-2.4,1h0A3.43,3.43,0,0,1,2.32,6.39H3.2A2.56,2.56,0,0,0,5.65,8.28h0A2.59,2.59,0,0,0,8.17,6.39h.89A3.42,3.42,0,0,1,8.09,8.16ZM9.1,6H8.24a2.56,2.56,0,0,0,0-.31,2.54,2.54,0,0,0,0-.33H9.1a3.39,3.39,0,0,1,0,.34C9.13,5.84,9.11,5.93,9.1,6Z"/><path class="b" d="M5.71,3.77h0a1.92,1.92,0,0,0,0,3.84h0a1.92,1.92,0,0,0,0-3.84Zm1.06,3a1.55,1.55,0,0,1-1.09.44h0a1.56,1.56,0,0,1,0-3.12h0A1.56,1.56,0,0,1,6.78,6.81Z"/></svg>