<svg xmlns="http://www.w3.org/2000/svg" viewBox="0 0 11.38 11.38"><defs><style>.a{fill:none;}.b{fill:#232222;}</style></defs><title>RCA_Jack</title><path class="a" d="M5.71,4h0a1.64,1.64,0,0,0,0,3.28h0A1.64,1.64,0,0,0,5.71,4Z"/><path class="a" d="M5.74,1.56H5.69a4.13,4.13,0,0,0-.06,8.27A4.13,4.13,0,0,0,9.82,5.74,4.14,4.14,0,0,0,5.74,1.56ZM8,8.08A3.31,3.31,0,0,1,5.69,9h0A3.33,3.33,0,1,1,8,8.08Z"/><path class="b" d="M5.69,0a5.69,5.69,0,1,0,5.69,5.69A5.69,5.69,0,0,0,5.69,0Zm3,8.8a4.31,4.31,0,0,1-3,1.23H5.63A4.34,4.34,0,1,1,8.71,8.8Z"/><path class="b" d="M5.75,1.35A4.34,4.34,0,1,0,5.63,10h.06a4.34,4.34,0,0,0,.06-8.67Zm2.82,7.3a4.13,4.13,0,0,1-7-3A4.14,4.14,0,0,1,5.69,1.56h.06A4.13,4.13,0,0,1,8.57,8.65Z"/><path class="b" d="M5.73,2.56h0A3.13,3.13,0,1,0,8.82,5.73,3.11,3.11,0,0,0,5.69,2.56Zm0,5h0a1.84,1.84,0,0,1,0-3.69h0a1.84,1.84,0,0,1,0,3.69Z"/><path class="b" d="M5.73,2.35A3.33,3.33,0,0,0,5.64,9h0a3.33,3.33,0,0,0,0-6.67ZM7.87,7.93A3.13,3.13,0,1,1,5.69,2.56h0A3.13,3.13,0,0,1,7.87,7.93Z"/><path class="b" d="M5.71,3.85h0a1.84,1.84,0,0,0,0,3.69h0a1.84,1.84,0,0,0,0-3.69Zm0,3.48h0A1.64,1.64,0,0,1,5.69,4h0a1.64,1.64,0,0,1,0,3.28Z"/></svg>