<?xml version="1.0" encoding="utf-8"?>
<!-- Generator: Adobe Illustrator 21.1.0, SVG Export Plug-In . SVG Version: 6.00 Build 0)  -->
<svg version="1.1" id="Layer_1" xmlns="http://www.w3.org/2000/svg" xmlns:xlink="http://www.w3.org/1999/xlink" x="0px" y="0px"
	 viewBox="0 0 11.4 11.4" style="enable-background:new 0 0 11.4 11.4;" xml:space="preserve">
<style type="text/css">
	.st0{fill:#232222;}
</style>
<title>RCA_Jack</title>
<path class="st0" d="M5.7,0C2.5,0,0,2.5,0,5.7s2.5,5.7,5.7,5.7s5.7-2.5,5.7-5.7l0,0C11.4,2.5,8.8,0,5.7,0z M8.7,8.8
	C7.9,9.6,6.8,10,5.7,10H5.6c-2.4,0-4.3-2-4.3-4.4c0-2.4,2-4.3,4.4-4.3c2.4,0,4.3,2,4.3,4.4C10,6.9,9.5,8,8.7,8.8L8.7,8.8z"/>
<path class="st0" d="M5.7,2.6L5.7,2.6C4,2.5,2.6,3.9,2.6,5.7c0,1.7,1.4,3.1,3.1,3.2c1.7,0,3.1-1.4,3.2-3.1C8.9,4,7.5,2.6,5.7,2.6
	C5.7,2.6,5.7,2.6,5.7,2.6L5.7,2.6z M5.7,7.6L5.7,7.6c-1,0-1.8-0.8-1.8-1.8s0.8-1.8,1.8-1.8l0,0c1,0,1.8,0.8,1.8,1.8S6.7,7.6,5.7,7.6
	z"/>
</svg>
