<svg xmlns="http://www.w3.org/2000/svg" viewBox="0 0 41.32 49.86"><defs><style>.a{fill:none;}.b{fill:#010101;}</style></defs><title>Patch Icon</title><polygon class="a" points="22.74 6.51 21.54 4.6 22.42 3.53 21.23 1.03 20.66 1.03 20.09 1.03 18.9 3.53 19.79 4.6 18.59 6.51 18.59 7.08 22.74 7.08 22.74 6.51"/><polygon class="a" points="22.74 13.4 22.74 12.04 22.74 8.85 18.59 8.85 18.59 12.04 18.59 13.4 18.59 18.27 22.74 18.27 22.74 13.4"/><path class="a" d="M23.77,11.56v6.7h.54v11.3l-.16.17L22.07,32c0,2.43.18,5.55,1.74,7.65a7.82,7.82,0,0,0,6.54,2.92c2.65-.3,5-2.51,6.78-6.35a17.75,17.75,0,0,0,1.45-7A17.94,17.94,0,0,0,23.77,11.56Z" transform="translate(0 0)"/><path class="b" d="M41.33,29.2A20.68,20.68,0,0,0,23.77,8.79V6.22l-1-1.54.83-1L21.89,0H19.44L17.7,3.68l.83,1-1,1.54V8.79a20.65,20.65,0,0,0,3.1,41.07c.59,0,1.18,0,1.76-.09L22,47.05c-.45,0-.9.07-1.35.07a17.91,17.91,0,0,1-3.1-35.56v6.7H17v11.3l.16.17,2.15,2.31c0,2.81.23,6.45,2.29,9.21a10.79,10.79,0,0,0,8.07,4.06,8.62,8.62,0,0,0,1-.05c2.43-.28,5.78-1.76,8.51-7l0,0c0-.09.08-.19.12-.28.2-.39.39-.8.58-1.24l0,0A20.35,20.35,0,0,0,41.33,29.2ZM18.59,6.51l1.2-1.91-.88-1.06L20.09,1h1.14l1.19,2.5L21.54,4.6l1.2,1.91v.57H18.59Zm0,11.75V8.85h4.15v9.41ZM37.13,36.19c-1.8,3.84-4.13,6-6.78,6.35a7.82,7.82,0,0,1-6.54-2.92c-1.56-2.1-1.74-5.21-1.74-7.65l2.08-2.24.16-.17V18.27h-.54v-6.7A17.94,17.94,0,0,1,38.59,29.2,17.75,17.75,0,0,1,37.13,36.19Z" transform="translate(0 0)"/></svg>